<svg width="96" height="32" viewBox="0 0 96 32" fill="none" xmlns="http://www.w3.org/2000/svg">
<path d="M8 27.6196V4H25.1436V8.28005H13.2103V14.2721H23.4629V18.5522H13.2103V27.6196H8Z" fill="#4C4DDC"/>
<path d="M27.0232 27.6196V4H32.2335V23.3395H42.8222V27.6196H27.0232Z" fill="#4C4DDC"/>
<path d="M53.994 28C52.0219 28 50.2627 27.609 48.7164 26.827C47.1701 26.0449 45.9488 24.9775 45.0524 23.6248C44.1784 22.251 43.7414 20.6975 43.7414 18.9643V4H48.9517V18.6473C48.9517 19.5773 49.1646 20.4227 49.5904 21.1836C50.0386 21.9234 50.6437 22.5046 51.4056 22.9273C52.1676 23.3501 53.0303 23.5614 53.994 23.5614C54.98 23.5614 55.8428 23.3501 56.5823 22.9273C57.3443 22.5046 57.9381 21.9234 58.3639 21.1836C58.8121 20.4227 59.0362 19.5773 59.0362 18.6473V4H64.2465V18.9643C64.2465 20.6975 63.7983 22.251 62.9019 23.6248C62.028 24.9775 60.8178 26.0449 59.2715 26.827C57.7252 27.609 55.9661 28 53.994 28Z" fill="#4C4DDC"/>
<path d="M65.8141 27.6196L74.0162 15.7939L65.8141 4H71.7976L78.3861 13.4478H75.4616L82.0165 4H88L79.8316 15.7939L88 27.6196H82.0165L75.4616 18.14L78.3861 18.1717L71.7976 27.6196H65.8141Z" fill="#4C4DDC"/>
</svg>
