<svg width="683" height="1067" viewBox="0 0 683 1067" fill="none" xmlns="http://www.w3.org/2000/svg">
<rect x="138.5" y="153.5" width="62" height="62" fill="#F8FAFC" stroke="#EEF2F6"/>
<rect x="200.5" y="153.5" width="62" height="62" fill="#F8FAFC" stroke="#EEF2F6"/>
<rect x="262.5" y="153.5" width="62" height="62" fill="#F8FAFC" stroke="#EEF2F6"/>
<rect x="324.5" y="153.5" width="62" height="62" fill="#F8FAFC" stroke="#EEF2F6"/>
<rect x="386.5" y="153.5" width="62" height="62" fill="#F8FAFC" stroke="#EEF2F6"/>
<mask id="path-6-inside-1_42_2157" fill="white">
<path d="M448 153H511V216H448V153Z"/>
</mask>
<path d="M448 153H511V216H448V153Z" fill="#F8FAFC"/>
<path d="M511 216V217H512V216H511ZM448 216H447V217H448V216ZM510 153V216H512V153H510ZM511 215H448V217H511V215ZM449 216V153H447V216H449Z" fill="#EEF2F6" mask="url(#path-6-inside-1_42_2157)"/>
<mask id="path-8-inside-2_42_2157" fill="white">
<path d="M138 216H201V279H138V216Z"/>
</mask>
<path d="M138 216H201V279H138V216Z" fill="#F8FAFC"/>
<path d="M201 279V280H202V279H201ZM138 279H137V280H138V279ZM200 216V279H202V216H200ZM201 278H138V280H201V278ZM139 279V216H137V279H139Z" fill="#EEF2F6" mask="url(#path-8-inside-2_42_2157)"/>
<mask id="path-10-inside-3_42_2157" fill="white">
<path d="M200 216H263V279H200V216Z"/>
</mask>
<path d="M200 216H263V279H200V216Z" fill="#F8FAFC"/>
<path d="M263 279V280H264V279H263ZM200 279H199V280H200V279ZM262 216V279H264V216H262ZM263 278H200V280H263V278ZM201 279V216H199V279H201Z" fill="#EEF2F6" mask="url(#path-10-inside-3_42_2157)"/>
<mask id="path-12-inside-4_42_2157" fill="white">
<path d="M262 216H325V279H262V216Z"/>
</mask>
<path d="M262 216H325V279H262V216Z" fill="#F8FAFC"/>
<path d="M325 279V280H326V279H325ZM262 279H261V280H262V279ZM324 216V279H326V216H324ZM325 278H262V280H325V278ZM263 279V216H261V279H263Z" fill="#EEF2F6" mask="url(#path-12-inside-4_42_2157)"/>
<mask id="path-14-inside-5_42_2157" fill="white">
<path d="M324 216H387V279H324V216Z"/>
</mask>
<path d="M324 216H387V279H324V216Z" fill="#F8FAFC"/>
<path d="M387 279V280H388V279H387ZM324 279H323V280H324V279ZM386 216V279H388V216H386ZM387 278H324V280H387V278ZM325 279V216H323V279H325Z" fill="#EEF2F6" mask="url(#path-14-inside-5_42_2157)"/>
<mask id="path-16-inside-6_42_2157" fill="white">
<path d="M386 216H449V279H386V216Z"/>
</mask>
<path d="M386 216H449V279H386V216Z" fill="#F8FAFC"/>
<path d="M449 279V280H450V279H449ZM386 279H385V280H386V279ZM448 216V279H450V216H448ZM449 278H386V280H449V278ZM387 279V216H385V279H387Z" fill="#EEF2F6" mask="url(#path-16-inside-6_42_2157)"/>
<mask id="path-18-inside-7_42_2157" fill="white">
<path d="M448 216H511V279H448V216Z"/>
</mask>
<path d="M448 216H511V279H448V216Z" fill="#F8FAFC"/>
<path d="M511 279V280H512V279H511ZM448 279H447V280H448V279ZM510 216V279H512V216H510ZM511 278H448V280H511V278ZM449 279V216H447V279H449Z" fill="#EEF2F6" mask="url(#path-18-inside-7_42_2157)"/>
<mask id="path-20-inside-8_42_2157" fill="white">
<path d="M138 279H201V342H138V279Z"/>
</mask>
<path d="M138 279H201V342H138V279Z" fill="#F8FAFC"/>
<path d="M201 342V343H202V342H201ZM138 342H137V343H138V342ZM200 279V342H202V279H200ZM201 341H138V343H201V341ZM139 342V279H137V342H139Z" fill="#EEF2F6" mask="url(#path-20-inside-8_42_2157)"/>
<mask id="path-22-inside-9_42_2157" fill="white">
<path d="M200 279H263V342H200V279Z"/>
</mask>
<path d="M200 279H263V342H200V279Z" fill="#F8FAFC"/>
<path d="M263 342V343H264V342H263ZM200 342H199V343H200V342ZM262 279V342H264V279H262ZM263 341H200V343H263V341ZM201 342V279H199V342H201Z" fill="#EEF2F6" mask="url(#path-22-inside-9_42_2157)"/>
<mask id="path-24-inside-10_42_2157" fill="white">
<path d="M262 279H325V342H262V279Z"/>
</mask>
<path d="M262 279H325V342H262V279Z" fill="#F8FAFC"/>
<path d="M325 342V343H326V342H325ZM262 342H261V343H262V342ZM324 279V342H326V279H324ZM325 341H262V343H325V341ZM263 342V279H261V342H263Z" fill="#EEF2F6" mask="url(#path-24-inside-10_42_2157)"/>
<mask id="path-26-inside-11_42_2157" fill="white">
<path d="M324 279H387V342H324V279Z"/>
</mask>
<path d="M324 279H387V342H324V279Z" fill="#F8FAFC"/>
<path d="M387 342V343H388V342H387ZM324 342H323V343H324V342ZM386 279V342H388V279H386ZM387 341H324V343H387V341ZM325 342V279H323V342H325Z" fill="#EEF2F6" mask="url(#path-26-inside-11_42_2157)"/>
<mask id="path-28-inside-12_42_2157" fill="white">
<path d="M386 279H449V342H386V279Z"/>
</mask>
<path d="M386 279H449V342H386V279Z" fill="#F8FAFC"/>
<path d="M449 342V343H450V342H449ZM386 342H385V343H386V342ZM448 279V342H450V279H448ZM449 341H386V343H449V341ZM387 342V279H385V342H387Z" fill="#EEF2F6" mask="url(#path-28-inside-12_42_2157)"/>
<mask id="path-30-inside-13_42_2157" fill="white">
<path d="M448 279H511V342H448V279Z"/>
</mask>
<path d="M448 279H511V342H448V279Z" fill="#F8FAFC"/>
<path d="M511 342V343H512V342H511ZM448 342H447V343H448V342ZM510 279V342H512V279H510ZM511 341H448V343H511V341ZM449 342V279H447V342H449Z" fill="#EEF2F6" mask="url(#path-30-inside-13_42_2157)"/>
<mask id="path-32-inside-14_42_2157" fill="white">
<path d="M138 342H201V405H138V342Z"/>
</mask>
<path d="M138 342H201V405H138V342Z" fill="#F8FAFC"/>
<path d="M201 405V406H202V405H201ZM138 405H137V406H138V405ZM200 342V405H202V342H200ZM201 404H138V406H201V404ZM139 405V342H137V405H139Z" fill="#EEF2F6" mask="url(#path-32-inside-14_42_2157)"/>
<mask id="path-34-inside-15_42_2157" fill="white">
<path d="M200 342H263V405H200V342Z"/>
</mask>
<path d="M200 342H263V405H200V342Z" fill="#F8FAFC"/>
<path d="M263 405V406H264V405H263ZM200 405H199V406H200V405ZM262 342V405H264V342H262ZM263 404H200V406H263V404ZM201 405V342H199V405H201Z" fill="#EEF2F6" mask="url(#path-34-inside-15_42_2157)"/>
<mask id="path-36-inside-16_42_2157" fill="white">
<path d="M262 342H325V405H262V342Z"/>
</mask>
<path d="M262 342H325V405H262V342Z" fill="#F8FAFC"/>
<path d="M325 405V406H326V405H325ZM262 405H261V406H262V405ZM324 342V405H326V342H324ZM325 404H262V406H325V404ZM263 405V342H261V405H263Z" fill="#EEF2F6" mask="url(#path-36-inside-16_42_2157)"/>
<mask id="path-38-inside-17_42_2157" fill="white">
<path d="M324 342H387V405H324V342Z"/>
</mask>
<path d="M324 342H387V405H324V342Z" fill="#F8FAFC"/>
<path d="M387 405V406H388V405H387ZM324 405H323V406H324V405ZM386 342V405H388V342H386ZM387 404H324V406H387V404ZM325 405V342H323V405H325Z" fill="#EEF2F6" mask="url(#path-38-inside-17_42_2157)"/>
<mask id="path-40-inside-18_42_2157" fill="white">
<path d="M386 342H449V405H386V342Z"/>
</mask>
<path d="M386 342H449V405H386V342Z" fill="#F8FAFC"/>
<path d="M449 405V406H450V405H449ZM386 405H385V406H386V405ZM448 342V405H450V342H448ZM449 404H386V406H449V404ZM387 405V342H385V405H387Z" fill="#EEF2F6" mask="url(#path-40-inside-18_42_2157)"/>
<mask id="path-42-inside-19_42_2157" fill="white">
<path d="M448 342H511V405H448V342Z"/>
</mask>
<path d="M448 342H511V405H448V342Z" fill="#F8FAFC"/>
<path d="M511 405V406H512V405H511ZM448 405H447V406H448V405ZM510 342V405H512V342H510ZM511 404H448V406H511V404ZM449 405V342H447V405H449Z" fill="#EEF2F6" mask="url(#path-42-inside-19_42_2157)"/>
<mask id="path-44-inside-20_42_2157" fill="white">
<path d="M138 405H201V468H138V405Z"/>
</mask>
<path d="M138 405H201V468H138V405Z" fill="#F8FAFC"/>
<path d="M201 468V469H202V468H201ZM138 468H137V469H138V468ZM200 405V468H202V405H200ZM201 467H138V469H201V467ZM139 468V405H137V468H139Z" fill="#EEF2F6" mask="url(#path-44-inside-20_42_2157)"/>
<mask id="path-46-inside-21_42_2157" fill="white">
<path d="M200 405H263V468H200V405Z"/>
</mask>
<path d="M200 405H263V468H200V405Z" fill="#F8FAFC"/>
<path d="M263 468V469H264V468H263ZM200 468H199V469H200V468ZM262 405V468H264V405H262ZM263 467H200V469H263V467ZM201 468V405H199V468H201Z" fill="#EEF2F6" mask="url(#path-46-inside-21_42_2157)"/>
<mask id="path-48-inside-22_42_2157" fill="white">
<path d="M262 405H325V468H262V405Z"/>
</mask>
<path d="M262 405H325V468H262V405Z" fill="#F8FAFC"/>
<path d="M325 468V469H326V468H325ZM262 468H261V469H262V468ZM324 405V468H326V405H324ZM325 467H262V469H325V467ZM263 468V405H261V468H263Z" fill="#EEF2F6" mask="url(#path-48-inside-22_42_2157)"/>
<mask id="path-50-inside-23_42_2157" fill="white">
<path d="M324 405H387V468H324V405Z"/>
</mask>
<path d="M324 405H387V468H324V405Z" fill="#F8FAFC"/>
<path d="M387 468V469H388V468H387ZM324 468H323V469H324V468ZM386 405V468H388V405H386ZM387 467H324V469H387V467ZM325 468V405H323V468H325Z" fill="#EEF2F6" mask="url(#path-50-inside-23_42_2157)"/>
<mask id="path-52-inside-24_42_2157" fill="white">
<path d="M386 405H449V468H386V405Z"/>
</mask>
<path d="M386 405H449V468H386V405Z" fill="#F8FAFC"/>
<path d="M449 468V469H450V468H449ZM386 468H385V469H386V468ZM448 405V468H450V405H448ZM449 467H386V469H449V467ZM387 468V405H385V468H387Z" fill="#EEF2F6" mask="url(#path-52-inside-24_42_2157)"/>
<mask id="path-54-inside-25_42_2157" fill="white">
<path d="M448 405H511V468H448V405Z"/>
</mask>
<path d="M448 405H511V468H448V405Z" fill="#F8FAFC"/>
<path d="M511 468V469H512V468H511ZM448 468H447V469H448V468ZM510 405V468H512V405H510ZM511 467H448V469H511V467ZM449 468V405H447V468H449Z" fill="#EEF2F6" mask="url(#path-54-inside-25_42_2157)"/>
<mask id="path-56-inside-26_42_2157" fill="white">
<path d="M138 468H201V531H138V468Z"/>
</mask>
<path d="M138 468H201V531H138V468Z" fill="#F8FAFC"/>
<path d="M201 531V532H202V531H201ZM138 531H137V532H138V531ZM200 468V531H202V468H200ZM201 530H138V532H201V530ZM139 531V468H137V531H139Z" fill="#EEF2F6" mask="url(#path-56-inside-26_42_2157)"/>
<mask id="path-58-inside-27_42_2157" fill="white">
<path d="M200 468H263V531H200V468Z"/>
</mask>
<path d="M200 468H263V531H200V468Z" fill="#F8FAFC"/>
<path d="M263 531V532H264V531H263ZM200 531H199V532H200V531ZM262 468V531H264V468H262ZM263 530H200V532H263V530ZM201 531V468H199V531H201Z" fill="#EEF2F6" mask="url(#path-58-inside-27_42_2157)"/>
<mask id="path-60-inside-28_42_2157" fill="white">
<path d="M262 468H325V531H262V468Z"/>
</mask>
<path d="M262 468H325V531H262V468Z" fill="#F8FAFC"/>
<path d="M325 531V532H326V531H325ZM262 531H261V532H262V531ZM324 468V531H326V468H324ZM325 530H262V532H325V530ZM263 531V468H261V531H263Z" fill="#EEF2F6" mask="url(#path-60-inside-28_42_2157)"/>
<mask id="path-62-inside-29_42_2157" fill="white">
<path d="M324 468H387V531H324V468Z"/>
</mask>
<path d="M324 468H387V531H324V468Z" fill="#F8FAFC"/>
<path d="M387 531V532H388V531H387ZM324 531H323V532H324V531ZM386 468V531H388V468H386ZM387 530H324V532H387V530ZM325 531V468H323V531H325Z" fill="#EEF2F6" mask="url(#path-62-inside-29_42_2157)"/>
<mask id="path-64-inside-30_42_2157" fill="white">
<path d="M386 468H449V531H386V468Z"/>
</mask>
<path d="M386 468H449V531H386V468Z" fill="#F8FAFC"/>
<path d="M449 531V532H450V531H449ZM386 531H385V532H386V531ZM448 468V531H450V468H448ZM449 530H386V532H449V530ZM387 531V468H385V531H387Z" fill="#EEF2F6" mask="url(#path-64-inside-30_42_2157)"/>
<mask id="path-66-inside-31_42_2157" fill="white">
<path d="M448 468H511V531H448V468Z"/>
</mask>
<path d="M448 468H511V531H448V468Z" fill="#F8FAFC"/>
<path d="M511 531V532H512V531H511ZM448 531H447V532H448V531ZM510 468V531H512V468H510ZM511 530H448V532H511V530ZM449 531V468H447V531H449Z" fill="#EEF2F6" mask="url(#path-66-inside-31_42_2157)"/>
<mask id="path-68-inside-32_42_2157" fill="white">
<path d="M138 531H201V594H138V531Z"/>
</mask>
<path d="M138 531H201V594H138V531Z" fill="#F8FAFC"/>
<path d="M201 594V595H202V594H201ZM138 594H137V595H138V594ZM200 531V594H202V531H200ZM201 593H138V595H201V593ZM139 594V531H137V594H139Z" fill="#EEF2F6" mask="url(#path-68-inside-32_42_2157)"/>
<mask id="path-70-inside-33_42_2157" fill="white">
<path d="M200 531H263V594H200V531Z"/>
</mask>
<path d="M200 531H263V594H200V531Z" fill="#F8FAFC"/>
<path d="M263 594V595H264V594H263ZM200 594H199V595H200V594ZM262 531V594H264V531H262ZM263 593H200V595H263V593ZM201 594V531H199V594H201Z" fill="#EEF2F6" mask="url(#path-70-inside-33_42_2157)"/>
<mask id="path-72-inside-34_42_2157" fill="white">
<path d="M262 531H325V594H262V531Z"/>
</mask>
<path d="M262 531H325V594H262V531Z" fill="#F8FAFC"/>
<path d="M325 594V595H326V594H325ZM262 594H261V595H262V594ZM324 531V594H326V531H324ZM325 593H262V595H325V593ZM263 594V531H261V594H263Z" fill="#EEF2F6" mask="url(#path-72-inside-34_42_2157)"/>
<mask id="path-74-inside-35_42_2157" fill="white">
<path d="M324 531H387V594H324V531Z"/>
</mask>
<path d="M324 531H387V594H324V531Z" fill="#F8FAFC"/>
<path d="M387 594V595H388V594H387ZM324 594H323V595H324V594ZM386 531V594H388V531H386ZM387 593H324V595H387V593ZM325 594V531H323V594H325Z" fill="#EEF2F6" mask="url(#path-74-inside-35_42_2157)"/>
<mask id="path-76-inside-36_42_2157" fill="white">
<path d="M386 531H449V594H386V531Z"/>
</mask>
<path d="M386 531H449V594H386V531Z" fill="#F8FAFC"/>
<path d="M449 594V595H450V594H449ZM386 594H385V595H386V594ZM448 531V594H450V531H448ZM449 593H386V595H449V593ZM387 594V531H385V594H387Z" fill="#EEF2F6" mask="url(#path-76-inside-36_42_2157)"/>
<mask id="path-78-inside-37_42_2157" fill="white">
<path d="M448 531H511V594H448V531Z"/>
</mask>
<path d="M448 531H511V594H448V531Z" fill="#F8FAFC"/>
<path d="M511 594V595H512V594H511ZM448 594H447V595H448V594ZM510 531V594H512V531H510ZM511 593H448V595H511V593ZM449 594V531H447V594H449Z" fill="#EEF2F6" mask="url(#path-78-inside-37_42_2157)"/>
<mask id="path-80-inside-38_42_2157" fill="white">
<path d="M138 594H201V657H138V594Z"/>
</mask>
<path d="M138 594H201V657H138V594Z" fill="#F8FAFC"/>
<path d="M201 657V658H202V657H201ZM138 657H137V658H138V657ZM200 594V657H202V594H200ZM201 656H138V658H201V656ZM139 657V594H137V657H139Z" fill="#EEF2F6" mask="url(#path-80-inside-38_42_2157)"/>
<mask id="path-82-inside-39_42_2157" fill="white">
<path d="M200 594H263V657H200V594Z"/>
</mask>
<path d="M200 594H263V657H200V594Z" fill="#F8FAFC"/>
<path d="M263 657V658H264V657H263ZM200 657H199V658H200V657ZM262 594V657H264V594H262ZM263 656H200V658H263V656ZM201 657V594H199V657H201Z" fill="#EEF2F6" mask="url(#path-82-inside-39_42_2157)"/>
<mask id="path-84-inside-40_42_2157" fill="white">
<path d="M262 594H325V657H262V594Z"/>
</mask>
<path d="M262 594H325V657H262V594Z" fill="#F8FAFC"/>
<path d="M325 657V658H326V657H325ZM262 657H261V658H262V657ZM324 594V657H326V594H324ZM325 656H262V658H325V656ZM263 657V594H261V657H263Z" fill="#EEF2F6" mask="url(#path-84-inside-40_42_2157)"/>
<mask id="path-86-inside-41_42_2157" fill="white">
<path d="M324 594H387V657H324V594Z"/>
</mask>
<path d="M324 594H387V657H324V594Z" fill="#F8FAFC"/>
<path d="M387 657V658H388V657H387ZM324 657H323V658H324V657ZM386 594V657H388V594H386ZM387 656H324V658H387V656ZM325 657V594H323V657H325Z" fill="#EEF2F6" mask="url(#path-86-inside-41_42_2157)"/>
<mask id="path-88-inside-42_42_2157" fill="white">
<path d="M386 594H449V657H386V594Z"/>
</mask>
<path d="M386 594H449V657H386V594Z" fill="#F8FAFC"/>
<path d="M449 657V658H450V657H449ZM386 657H385V658H386V657ZM448 594V657H450V594H448ZM449 656H386V658H449V656ZM387 657V594H385V657H387Z" fill="#EEF2F6" mask="url(#path-88-inside-42_42_2157)"/>
<mask id="path-90-inside-43_42_2157" fill="white">
<path d="M448 594H511V657H448V594Z"/>
</mask>
<path d="M448 594H511V657H448V594Z" fill="#F8FAFC"/>
<path d="M511 657V658H512V657H511ZM448 657H447V658H448V657ZM510 594V657H512V594H510ZM511 656H448V658H511V656ZM449 657V594H447V657H449Z" fill="#EEF2F6" mask="url(#path-90-inside-43_42_2157)"/>
<mask id="path-92-inside-44_42_2157" fill="white">
<path d="M138 657H201V720H138V657Z"/>
</mask>
<path d="M138 657H201V720H138V657Z" fill="#F8FAFC"/>
<path d="M201 720V721H202V720H201ZM138 720H137V721H138V720ZM200 657V720H202V657H200ZM201 719H138V721H201V719ZM139 720V657H137V720H139Z" fill="#EEF2F6" mask="url(#path-92-inside-44_42_2157)"/>
<mask id="path-94-inside-45_42_2157" fill="white">
<path d="M200 657H263V720H200V657Z"/>
</mask>
<path d="M200 657H263V720H200V657Z" fill="#F8FAFC"/>
<path d="M263 720V721H264V720H263ZM200 720H199V721H200V720ZM262 657V720H264V657H262ZM263 719H200V721H263V719ZM201 720V657H199V720H201Z" fill="#EEF2F6" mask="url(#path-94-inside-45_42_2157)"/>
<mask id="path-96-inside-46_42_2157" fill="white">
<path d="M262 657H325V720H262V657Z"/>
</mask>
<path d="M262 657H325V720H262V657Z" fill="#F8FAFC"/>
<path d="M325 720V721H326V720H325ZM262 720H261V721H262V720ZM324 657V720H326V657H324ZM325 719H262V721H325V719ZM263 720V657H261V720H263Z" fill="#EEF2F6" mask="url(#path-96-inside-46_42_2157)"/>
<mask id="path-98-inside-47_42_2157" fill="white">
<path d="M324 657H387V720H324V657Z"/>
</mask>
<path d="M324 657H387V720H324V657Z" fill="#F8FAFC"/>
<path d="M387 720V721H388V720H387ZM324 720H323V721H324V720ZM386 657V720H388V657H386ZM387 719H324V721H387V719ZM325 720V657H323V720H325Z" fill="#EEF2F6" mask="url(#path-98-inside-47_42_2157)"/>
<mask id="path-100-inside-48_42_2157" fill="white">
<path d="M386 657H449V720H386V657Z"/>
</mask>
<path d="M386 657H449V720H386V657Z" fill="#F8FAFC"/>
<path d="M449 720V721H450V720H449ZM386 720H385V721H386V720ZM448 657V720H450V657H448ZM449 719H386V721H449V719ZM387 720V657H385V720H387Z" fill="#EEF2F6" mask="url(#path-100-inside-48_42_2157)"/>
<mask id="path-102-inside-49_42_2157" fill="white">
<path d="M448 657H511V720H448V657Z"/>
</mask>
<path d="M448 657H511V720H448V657Z" fill="#F8FAFC"/>
<path d="M511 720V721H512V720H511ZM448 720H447V721H448V720ZM510 657V720H512V657H510ZM511 719H448V721H511V719ZM449 720V657H447V720H449Z" fill="#EEF2F6" mask="url(#path-102-inside-49_42_2157)"/>
<mask id="path-104-inside-50_42_2157" fill="white">
<path d="M138 720H201V783H138V720Z"/>
</mask>
<path d="M138 720H201V783H138V720Z" fill="#F8FAFC"/>
<path d="M201 783V784H202V783H201ZM138 783H137V784H138V783ZM200 720V783H202V720H200ZM201 782H138V784H201V782ZM139 783V720H137V783H139Z" fill="#EEF2F6" mask="url(#path-104-inside-50_42_2157)"/>
<mask id="path-106-inside-51_42_2157" fill="white">
<path d="M200 720H263V783H200V720Z"/>
</mask>
<path d="M200 720H263V783H200V720Z" fill="#F8FAFC"/>
<path d="M263 783V784H264V783H263ZM200 783H199V784H200V783ZM262 720V783H264V720H262ZM263 782H200V784H263V782ZM201 783V720H199V783H201Z" fill="#EEF2F6" mask="url(#path-106-inside-51_42_2157)"/>
<mask id="path-108-inside-52_42_2157" fill="white">
<path d="M262 720H325V783H262V720Z"/>
</mask>
<path d="M262 720H325V783H262V720Z" fill="#F8FAFC"/>
<path d="M325 783V784H326V783H325ZM262 783H261V784H262V783ZM324 720V783H326V720H324ZM325 782H262V784H325V782ZM263 783V720H261V783H263Z" fill="#EEF2F6" mask="url(#path-108-inside-52_42_2157)"/>
<mask id="path-110-inside-53_42_2157" fill="white">
<path d="M324 720H387V783H324V720Z"/>
</mask>
<path d="M324 720H387V783H324V720Z" fill="#F8FAFC"/>
<path d="M387 783V784H388V783H387ZM324 783H323V784H324V783ZM386 720V783H388V720H386ZM387 782H324V784H387V782ZM325 783V720H323V783H325Z" fill="#EEF2F6" mask="url(#path-110-inside-53_42_2157)"/>
<mask id="path-112-inside-54_42_2157" fill="white">
<path d="M386 720H449V783H386V720Z"/>
</mask>
<path d="M386 720H449V783H386V720Z" fill="#F8FAFC"/>
<path d="M449 783V784H450V783H449ZM386 783H385V784H386V783ZM448 720V783H450V720H448ZM449 782H386V784H449V782ZM387 783V720H385V783H387Z" fill="#EEF2F6" mask="url(#path-112-inside-54_42_2157)"/>
<mask id="path-114-inside-55_42_2157" fill="white">
<path d="M448 720H511V783H448V720Z"/>
</mask>
<path d="M448 720H511V783H448V720Z" fill="#F8FAFC"/>
<path d="M511 783V784H512V783H511ZM448 783H447V784H448V783ZM510 720V783H512V720H510ZM511 782H448V784H511V782ZM449 783V720H447V783H449Z" fill="#EEF2F6" mask="url(#path-114-inside-55_42_2157)"/>
<mask id="path-116-inside-56_42_2157" fill="white">
<path d="M138 783H201V846H138V783Z"/>
</mask>
<path d="M138 783H201V846H138V783Z" fill="#F8FAFC"/>
<path d="M201 846V847H202V846H201ZM138 846H137V847H138V846ZM200 783V846H202V783H200ZM201 845H138V847H201V845ZM139 846V783H137V846H139Z" fill="#EEF2F6" mask="url(#path-116-inside-56_42_2157)"/>
<mask id="path-118-inside-57_42_2157" fill="white">
<path d="M200 783H263V846H200V783Z"/>
</mask>
<path d="M200 783H263V846H200V783Z" fill="#F8FAFC"/>
<path d="M263 846V847H264V846H263ZM200 846H199V847H200V846ZM262 783V846H264V783H262ZM263 845H200V847H263V845ZM201 846V783H199V846H201Z" fill="#EEF2F6" mask="url(#path-118-inside-57_42_2157)"/>
<mask id="path-120-inside-58_42_2157" fill="white">
<path d="M262 783H325V846H262V783Z"/>
</mask>
<path d="M262 783H325V846H262V783Z" fill="#F8FAFC"/>
<path d="M325 846V847H326V846H325ZM262 846H261V847H262V846ZM324 783V846H326V783H324ZM325 845H262V847H325V845ZM263 846V783H261V846H263Z" fill="#EEF2F6" mask="url(#path-120-inside-58_42_2157)"/>
<mask id="path-122-inside-59_42_2157" fill="white">
<path d="M324 783H387V846H324V783Z"/>
</mask>
<path d="M324 783H387V846H324V783Z" fill="#F8FAFC"/>
<path d="M387 846V847H388V846H387ZM324 846H323V847H324V846ZM386 783V846H388V783H386ZM387 845H324V847H387V845ZM325 846V783H323V846H325Z" fill="#EEF2F6" mask="url(#path-122-inside-59_42_2157)"/>
<mask id="path-124-inside-60_42_2157" fill="white">
<path d="M386 783H449V846H386V783Z"/>
</mask>
<path d="M386 783H449V846H386V783Z" fill="#F8FAFC"/>
<path d="M449 846V847H450V846H449ZM386 846H385V847H386V846ZM448 783V846H450V783H448ZM449 845H386V847H449V845ZM387 846V783H385V846H387Z" fill="#EEF2F6" mask="url(#path-124-inside-60_42_2157)"/>
<mask id="path-126-inside-61_42_2157" fill="white">
<path d="M448 783H511V846H448V783Z"/>
</mask>
<path d="M448 783H511V846H448V783Z" fill="#F8FAFC"/>
<path d="M511 846V847H512V846H511ZM448 846H447V847H448V846ZM510 783V846H512V783H510ZM511 845H448V847H511V845ZM449 846V783H447V846H449Z" fill="#EEF2F6" mask="url(#path-126-inside-61_42_2157)"/>
<mask id="path-128-inside-62_42_2157" fill="white">
<path d="M138 846H201V909H138V846Z"/>
</mask>
<path d="M138 846H201V909H138V846Z" fill="#F8FAFC"/>
<path d="M201 909V910H202V909H201ZM138 909H137V910H138V909ZM200 846V909H202V846H200ZM201 908H138V910H201V908ZM139 909V846H137V909H139Z" fill="#EEF2F6" mask="url(#path-128-inside-62_42_2157)"/>
<mask id="path-130-inside-63_42_2157" fill="white">
<path d="M200 846H263V909H200V846Z"/>
</mask>
<path d="M200 846H263V909H200V846Z" fill="#F8FAFC"/>
<path d="M263 909V910H264V909H263ZM200 909H199V910H200V909ZM262 846V909H264V846H262ZM263 908H200V910H263V908ZM201 909V846H199V909H201Z" fill="#EEF2F6" mask="url(#path-130-inside-63_42_2157)"/>
<mask id="path-132-inside-64_42_2157" fill="white">
<path d="M262 846H325V909H262V846Z"/>
</mask>
<path d="M262 846H325V909H262V846Z" fill="#F8FAFC"/>
<path d="M325 909V910H326V909H325ZM262 909H261V910H262V909ZM324 846V909H326V846H324ZM325 908H262V910H325V908ZM263 909V846H261V909H263Z" fill="#EEF2F6" mask="url(#path-132-inside-64_42_2157)"/>
<mask id="path-134-inside-65_42_2157" fill="white">
<path d="M324 846H387V909H324V846Z"/>
</mask>
<path d="M324 846H387V909H324V846Z" fill="#F8FAFC"/>
<path d="M387 909V910H388V909H387ZM324 909H323V910H324V909ZM386 846V909H388V846H386ZM387 908H324V910H387V908ZM325 909V846H323V909H325Z" fill="#EEF2F6" mask="url(#path-134-inside-65_42_2157)"/>
<mask id="path-136-inside-66_42_2157" fill="white">
<path d="M386 846H449V909H386V846Z"/>
</mask>
<path d="M386 846H449V909H386V846Z" fill="#F8FAFC"/>
<path d="M449 909V910H450V909H449ZM386 909H385V910H386V909ZM448 846V909H450V846H448ZM449 908H386V910H449V908ZM387 909V846H385V909H387Z" fill="#EEF2F6" mask="url(#path-136-inside-66_42_2157)"/>
<mask id="path-138-inside-67_42_2157" fill="white">
<path d="M448 846H511V909H448V846Z"/>
</mask>
<path d="M448 846H511V909H448V846Z" fill="#F8FAFC"/>
<path d="M511 909V910H512V909H511ZM448 909H447V910H448V909ZM510 846V909H512V846H510ZM511 908H448V910H511V908ZM449 909V846H447V909H449Z" fill="#EEF2F6" mask="url(#path-138-inside-67_42_2157)"/>
<mask id="path-140-inside-68_42_2157" fill="white">
<path d="M138 909H201V972H138V909Z"/>
</mask>
<path d="M138 909H201V972H138V909Z" fill="#F8FAFC"/>
<path d="M201 972V973H202V972H201ZM138 972H137V973H138V972ZM200 909V972H202V909H200ZM201 971H138V973H201V971ZM139 972V909H137V972H139Z" fill="#EEF2F6" mask="url(#path-140-inside-68_42_2157)"/>
<mask id="path-142-inside-69_42_2157" fill="white">
<path d="M200 909H263V972H200V909Z"/>
</mask>
<path d="M200 909H263V972H200V909Z" fill="#F8FAFC"/>
<path d="M263 972V973H264V972H263ZM200 972H199V973H200V972ZM262 909V972H264V909H262ZM263 971H200V973H263V971ZM201 972V909H199V972H201Z" fill="#EEF2F6" mask="url(#path-142-inside-69_42_2157)"/>
<mask id="path-144-inside-70_42_2157" fill="white">
<path d="M262 909H325V972H262V909Z"/>
</mask>
<path d="M262 909H325V972H262V909Z" fill="#F8FAFC"/>
<path d="M325 972V973H326V972H325ZM262 972H261V973H262V972ZM324 909V972H326V909H324ZM325 971H262V973H325V971ZM263 972V909H261V972H263Z" fill="#EEF2F6" mask="url(#path-144-inside-70_42_2157)"/>
<mask id="path-146-inside-71_42_2157" fill="white">
<path d="M324 909H387V972H324V909Z"/>
</mask>
<path d="M324 909H387V972H324V909Z" fill="#F8FAFC"/>
<path d="M387 972V973H388V972H387ZM324 972H323V973H324V972ZM386 909V972H388V909H386ZM387 971H324V973H387V971ZM325 972V909H323V972H325Z" fill="#EEF2F6" mask="url(#path-146-inside-71_42_2157)"/>
<mask id="path-148-inside-72_42_2157" fill="white">
<path d="M386 909H449V972H386V909Z"/>
</mask>
<path d="M386 909H449V972H386V909Z" fill="#F8FAFC"/>
<path d="M449 972V973H450V972H449ZM386 972H385V973H386V972ZM448 909V972H450V909H448ZM449 971H386V973H449V971ZM387 972V909H385V972H387Z" fill="#EEF2F6" mask="url(#path-148-inside-72_42_2157)"/>
<mask id="path-150-inside-73_42_2157" fill="white">
<path d="M448 909H511V972H448V909Z"/>
</mask>
<path d="M448 909H511V972H448V909Z" fill="#F8FAFC"/>
<path d="M511 972V973H512V972H511ZM448 972H447V973H448V972ZM510 909V972H512V909H510ZM511 971H448V973H511V971ZM449 972V909H447V972H449Z" fill="#EEF2F6" mask="url(#path-150-inside-73_42_2157)"/>
<g filter="url(#filter0_f_42_2157)">
<path fill-rule="evenodd" clip-rule="evenodd" d="M375.537 399.22C428.326 512.462 523.104 648.944 488.281 723.646C449.803 806.187 368.501 664.57 310.17 539.442C258.839 429.327 211.124 274.374 244.985 201.736C274.628 138.148 330.601 302.825 375.537 399.22Z" fill="#6B6CFF" fill-opacity="0.22"/>
</g>
<g filter="url(#filter1_f_42_2157)">
<path fill-rule="evenodd" clip-rule="evenodd" d="M298.749 572.155C350.767 683.743 441.458 824.032 413.187 884.678C381.948 951.69 303.159 809.295 245.681 685.994C195.098 577.487 145.953 429.361 173.443 370.389C197.509 318.765 254.469 477.167 298.749 572.155Z" fill="#B74CDC" fill-opacity="0.23"/>
</g>
<rect x="511" y="972" width="43.9999" height="819" transform="rotate(180 511 972)" fill="url(#paint0_linear_42_2157)"/>
<rect x="511" y="153" width="64" height="375" transform="rotate(90 511 153)" fill="url(#paint1_linear_42_2157)"/>
<rect x="136" y="972" width="64" height="375" transform="rotate(-90 136 972)" fill="url(#paint2_linear_42_2157)"/>
<rect x="136" y="153" width="44" height="819" fill="url(#paint3_linear_42_2157)"/>
<defs>
<filter id="filter0_f_42_2157" x="46.6157" y="0.515503" width="636.167" height="934.708" filterUnits="userSpaceOnUse" color-interpolation-filters="sRGB">
<feFlood flood-opacity="0" result="BackgroundImageFix"/>
<feBlend mode="normal" in="SourceGraphic" in2="BackgroundImageFix" result="shape"/>
<feGaussianBlur stdDeviation="93.5" result="effect1_foregroundBlur_42_2157"/>
</filter>
<filter id="filter1_f_42_2157" x="0.543213" y="195.292" width="582.984" height="871.555" filterUnits="userSpaceOnUse" color-interpolation-filters="sRGB">
<feFlood flood-opacity="0" result="BackgroundImageFix"/>
<feBlend mode="normal" in="SourceGraphic" in2="BackgroundImageFix" result="shape"/>
<feGaussianBlur stdDeviation="82.5" result="effect1_foregroundBlur_42_2157"/>
</filter>
<linearGradient id="paint0_linear_42_2157" x1="511" y1="1337.74" x2="569.891" y2="1337.74" gradientUnits="userSpaceOnUse">
<stop stop-color="white" stop-opacity="0.5"/>
<stop offset="1" stop-color="white" stop-opacity="0"/>
</linearGradient>
<linearGradient id="paint1_linear_42_2157" x1="511" y1="320.463" x2="596.66" y2="320.463" gradientUnits="userSpaceOnUse">
<stop stop-color="white" stop-opacity="0.5"/>
<stop offset="1" stop-color="white" stop-opacity="0"/>
</linearGradient>
<linearGradient id="paint2_linear_42_2157" x1="136" y1="1139.46" x2="221.66" y2="1139.46" gradientUnits="userSpaceOnUse">
<stop stop-color="white" stop-opacity="0.5"/>
<stop offset="1" stop-color="white" stop-opacity="0"/>
</linearGradient>
<linearGradient id="paint3_linear_42_2157" x1="136" y1="518.74" x2="194.891" y2="518.74" gradientUnits="userSpaceOnUse">
<stop stop-color="white" stop-opacity="0.5"/>
<stop offset="1" stop-color="white" stop-opacity="0"/>
</linearGradient>
</defs>
</svg>
